<svg id="logo" xmlns="http://www.w3.org/2000/svg" width="472" height="146" viewBox="0 0 472 146">
<defs>
    <style type="text/css">
      .cls-1 {
        fill: #000074;
      }
      .cls-1, .cls-2 {
        fill-rule: evenodd;
      }
      .cls-2 {
        fill: #182641;
      }
    </style>
  </defs>
  <path id="icon" class="cls-1" d="M69.387,0.009C88.354-.274,101.766,4.7,113.081,12.292c11.989,8.041,20.676,18.61,26.758,32.62A99.564,99.564,0,0,1,143.848,57.3c0.666,2.355.635,4.918,1.2,7.35l0.2,3.423a30.545,30.545,0,0,1,.1,8.054v1.812l-0.7,6.444c-0.453,1.842-.576,3.792-1.1,5.638a93.148,93.148,0,0,1-3.708,11.377,73.066,73.066,0,0,1-44.4,41.077c-3.044,1.026-6.283,1.568-9.52,2.416-1.078.282-2.2,0.261-3.207,0.5l-6.815.6H72.694a33.977,33.977,0,0,1-7.216-.4l-1.9-.1c-2.42-.576-4.963-0.631-7.316-1.309a69.623,69.623,0,0,1-7.316-2.114c-2.283-.944-4.651-1.959-6.815-2.919-16.62-7.379-29.209-21.156-36.479-37.956a91.306,91.306,0,0,1-3.207-9.968c-0.7-2.3-.99-4.956-1.6-7.45-0.265-1.078-.17-2.223-0.4-3.222-0.308-1.336,0-3.028-.2-4.128a24.817,24.817,0,0,1,0-6.846V67.867l0.7-6.343c1.12-4.551,1.66-9.072,3.307-13.088A79.882,79.882,0,0,1,9.257,37.361c7.09-11.7,15.057-20.216,26.657-27.385A81.208,81.208,0,0,1,46.738,4.741C51.213,2.832,56.2,2.1,61.37.815l5.011-.6C67.278,0,68.678.454,69.387,0.009Zm-0.2,2.618c-0.692.4-1.946,0-2.806,0.2l-4.71.6c-5.021,1.273-9.747,2-14.13,3.826C27.669,15.539,15.146,28.8,6.952,48.839c-1.684,4.117-2.267,8.691-3.407,13.39-0.524,2.162-.206,4.537-0.7,6.746v2.416a26.54,26.54,0,0,0,.2,7.249l0.3,3.725c0.754,3.193,1.075,6.5,2,9.363,1.173,3.619,2.08,6.908,3.508,10.168a69.82,69.82,0,0,0,35.376,35.339c3.221,1.421,6.731,2.654,10.322,3.825l5.813,1.309,5.913,0.806h1.2a24.351,24.351,0,0,0,6.514.2H76.8l6.113-.6c3.807-.923,7.542-1.348,11.024-2.517,19.722-6.623,35.074-20.332,43.093-38.661,2.111-4.825,3.368-9.984,4.81-15.6q0.4-2.768.8-5.537,0.049-1.158.1-2.316a27.357,27.357,0,0,0,.2-5.235,25.284,25.284,0,0,0-.2-5.034q-0.05-1.158-.1-2.316-0.4-2.768-.8-5.537c-1.318-5.106-2.419-9.724-4.309-14.1-7.979-18.454-20.959-31.011-39.585-38.761-4.43-1.843-9.324-2.579-14.431-3.826l-2.3-.2C77.753,2.333,73.29,2.636,69.187,2.627ZM65.078,7.359l3.307-.2a29.5,29.5,0,0,0,.4,5.839c0.153,0.705-.132,1.446.2,1.913a1.082,1.082,0,0,0,.6.1v-0.2c0.317-.5.008-1.483,0-2.114q-0.15-2.768-.3-5.537h0.2a10.952,10.952,0,0,1,3.006-.2,6.246,6.246,0,0,1,.1,1.712c0.3,0.469.135,2.279,0.2,3.02,0.214,2.429.429,3.972-1.6,4.732-1.7.636-4.913,0.354-5.412-1.108-0.414-.554-0.119-1.368-0.3-2.215A30.515,30.515,0,0,1,65.078,7.359Zm17.337,0.3-0.8,9.262-2.906-.2a23.182,23.182,0,0,0-1.3-4.128q-0.15,1.963-.3,3.927l-2.806-.2a41.354,41.354,0,0,1,.6-6.141c0.244-1.123-.028-2.263.3-3.222,0.656,0.193,2.387-.046,2.706.5,0.758,1.035.606,2.828,1.4,3.826a14.414,14.414,0,0,1,.4-3.927ZM60.568,17.83l-2,.4a42.326,42.326,0,0,1-2.3-5.135h-0.1v0.2a25.986,25.986,0,0,1,1.3,5.235l-2.806.7v-0.2a8.351,8.351,0,0,1-.5-2.114c-0.427-1.42-.773-3.1-1.2-4.531a6.34,6.34,0,0,1-.4-2.215A14.22,14.22,0,0,1,56.66,9.171a20.06,20.06,0,0,0,1.7,3.725c-0.018-.8-0.4-3.9-0.1-4.128a20.919,20.919,0,0,1,4.009-1.007l2.2,9.061h-0.2a8.758,8.758,0,0,1-2.606.6c-0.784-1.185-.6-4.23-1.4-5.336Q60.418,14.96,60.568,17.83ZM88.027,8.768a10.9,10.9,0,0,1-.5,2.316c-0.394,1.475-.524,2.965-0.9,4.329-0.217.783-.074,1.831-0.5,2.416a0.674,0.674,0,0,1-.4.1,7.385,7.385,0,0,0-2.806-.6,39.093,39.093,0,0,1,1.3-6.141c0.238-.892.114-2.221,0.6-2.92a0.674,0.674,0,0,1,.4-0.1A10.132,10.132,0,0,0,88.027,8.768Zm8.118,4.43a17.709,17.709,0,0,1-1.9-.5c-0.463,1.233-.724,2.529-1.2,3.826a15.941,15.941,0,0,0-1,3.121c-1.217-.073-2.062-0.726-3.207-0.906,0.283-2.519,1.815-4.66,2.2-7.148h-0.2l-1.6-.6,0.6-1.812h0.1l6.715,2.215v0.2A3.323,3.323,0,0,0,96.145,13.2Zm-46.7-2.014c0.519,0.276.634,1.181,0.9,1.712,0.778,1.54,1.507,3.206,2.305,4.732a8.03,8.03,0,0,1,.8,2.014,8.352,8.352,0,0,1-2.606,1.208c-0.429-1.771-1.708-3.165-2.2-4.933h-0.1v0.3a7.3,7.3,0,0,1,.5,1.913c0.307,1.02.659,2.14,0.9,3.222a17.078,17.078,0,0,1-2,.805c-0.464-1.405-2.369-3.016-3.107-4.43h-0.1v0.2a24.137,24.137,0,0,1,2.3,4.833c-1.03.225-1.631,0.925-2.706,1.108a17.285,17.285,0,0,0-1.3-2.718c-0.567-1.3-1.036-2.43-1.6-3.725a7.381,7.381,0,0,1-.9-2.014c1.4-.348,2.432-1.455,3.908-1.711,0.4,1.206,1.626,2.094,2.2,3.222h0.1v-0.3a12.37,12.37,0,0,1-1-3.624A16.992,16.992,0,0,0,49.444,11.185ZM98.149,11.99c0.739,0.314,2.691.946,2.706,1.913l-0.7,2.718h0.1c0.343-.569,1.678-2.355,2.3-2.517,0.626,0.559,2.12.641,2.5,1.409l-4.71,4.229-1.4,3.02a9.129,9.129,0,0,1-2.806-1.409C97.762,19.6,98.109,15.3,98.149,11.99ZM37.017,17.93a4.571,4.571,0,0,1,1.6.1c0.732,0.32,3.393,4.077,3.808,4.933a3.34,3.34,0,0,1,.1,1.611c-0.443,1.548-2.355,2.887-3.909,3.322a3.276,3.276,0,0,1-1.9-.2,4.885,4.885,0,0,1-1.2-1.51c-0.73-1.024-3-3.231-2.505-4.933a5.6,5.6,0,0,1,2.706-2.819A12.427,12.427,0,0,0,37.017,17.93Zm32.971,1.007c14.736-.257,24.9,3.582,33.372,9.564,8.849,6.247,14.782,13.573,19.342,24.163a71.134,71.134,0,0,1,2.806,8.658q0.451,2.768.9,5.537,0.049,1.107.1,2.215a17,17,0,0,1,.1,5.94v1.913c-0.273,1.208-.1,2.564-0.4,3.826-1.1,4.555-1.736,8.811-3.408,12.686-6.339,14.692-16.691,24.362-31.568,30.506-2.991,1.235-6.344,1.685-9.721,2.517l-5.512.6H73.5a18.437,18.437,0,0,1-5.211-.2c-1.947-.446-3.961-0.221-5.812-0.7a71.943,71.943,0,0,1-10.723-3.423C39,117.127,29.177,107.812,23.588,95.05c-1.081-2.469-1.714-4.907-2.606-7.652-0.747-2.3-1-4.977-1.6-7.551q-0.1-1.56-.2-3.121a16.551,16.551,0,0,1-.1-5.235V69.277c0.271-1.2.1-2.579,0.4-3.826,0.851-3.533,1.134-7.064,2.405-10.169a61.58,61.58,0,0,1,3.808-8.558C32.046,36.232,40.242,28.169,51.95,23.065c3.6-1.571,7.535-2.365,11.725-3.423l4.81-.6A6.435,6.435,0,0,0,69.988,18.937Zm39.385,0.3a5.813,5.813,0,0,1,5.412,3.322c0.43,1.187-.8,3.353-1.6,3.524-0.581-.8-2.055-1.143-2.405-2.114a3.713,3.713,0,0,0,1.4-2.114,1.375,1.375,0,0,0-.8-0.3c-0.81,1.24-3.369,3.577-3.608,5.034a0.37,0.37,0,0,1,.1.2,0.788,0.788,0,0,0,.6.1c0.755-.3.758-1.325,1.6-1.51a9.384,9.384,0,0,0,2.405,1.913v0.1h-0.1a7.239,7.239,0,0,1-1.7,1.812,5.223,5.223,0,0,1-5.011-2.517,2.284,2.284,0,0,1-.6-2.114,7.676,7.676,0,0,1,1.3-1.913A14.587,14.587,0,0,1,109.373,19.239Zm-73.358.906a1.081,1.081,0,0,0-.3.7,26.581,26.581,0,0,1,2.505,3.423c0.366,0.546.547,1.259,1.3,1.41a1.081,1.081,0,0,0,.3-0.7,7.014,7.014,0,0,1-1-1.51c-0.778-1.113-1.756-2.19-2.505-3.322h-0.3Zm34.074,0.906-5.612.6c-3.62.915-7.135,1.493-10.322,2.819C39.68,30.495,30.146,40.582,24.19,55.181c-1.225,3-1.7,6.367-2.505,9.766l-0.5,4.631v2.014a16.806,16.806,0,0,0,.1,4.833,22.713,22.713,0,0,0,.2,3.222c0.617,2.658.927,5.38,1.7,7.752,0.721,2.2,1.229,4.222,2.1,6.242A51.1,51.1,0,0,0,52.25,120.623a71.826,71.826,0,0,0,11.024,3.523c1.716,0.438,3.374.21,5.211,0.6a27.89,27.89,0,0,0,5.311.2h2l4.109-.4c3.608-.855,7.167-1.215,10.322-2.517,14.09-5.812,24.251-14.719,30.265-28.593,1.634-3.767,2.451-7.853,3.508-12.283l0.5-4.43V74.915a17.917,17.917,0,0,0-.1-5.638q-0.051-1.107-.1-2.215l-0.8-4.933a74.672,74.672,0,0,0-3.107-9.464C114.5,39.094,104.776,29.957,91.034,24.273c-3.639-1.505-7.679-1.938-11.926-2.92l-2-.1C75.1,20.811,72.4,21.058,70.089,21.051ZM30,23.87c1.583,0.166,1.9,1.225,2.906,1.913v0.1h-0.1A9,9,0,0,1,30.5,28.1a13.965,13.965,0,0,0-1.7-1.712,0.343,0.343,0,0,0-.2.1,1.06,1.06,0,0,0-.5.4,0.345,0.345,0,0,0,.1.2,2.974,2.974,0,0,0,1,1.208c0.756,0.76,2.311,3.063,3.508,3.121a1.812,1.812,0,0,1,.3-0.4,0.346,0.346,0,0,0-.1-0.2c-0.252-.783-1.034-0.979-1.3-1.712a11.217,11.217,0,0,0,2.305-2.215h0.1v0.1c2.923,1.849.932,4.811-1,6.141-0.56.385-1.784,1.341-2.706,0.7-1.615-.523-3.554-3.516-4.71-4.732A5.166,5.166,0,0,1,28.3,24.474C28.792,24.167,29.487,24.2,30,23.87Zm86.887,1.712a4.84,4.84,0,0,1,4.911,5.135,28.09,28.09,0,0,1-3.608,3.725c-0.672.508-1.381,1.44-2.806,0.906-1.245-.467-4.23-3.084-3.307-5.235a25.558,25.558,0,0,1,4.009-4.128C116.335,25.806,116.657,25.767,116.889,25.582Zm1.8,2.517a10.848,10.848,0,0,1-1.3,1.208c-1.021,1.025-2,2.083-3.007,3.121,0.033,0.1.067,0.2,0.1,0.3a1.1,1.1,0,0,1,.3.2,0.34,0.34,0,0,0,.2-0.1c1.258-.421,1.923-1.969,2.907-2.718a3.082,3.082,0,0,0,1.5-1.712A1.07,1.07,0,0,0,118.693,28.1ZM69.588,30.616c12.131-.187,22.116,1.679,29.564,6.242,0.883,0.541,1.747.864,2.606,1.41a28.453,28.453,0,0,1,7.416,6.846,22.159,22.159,0,0,1,3.207,6.746c1.77,6.263-1.338,11.654-3.808,15a13.367,13.367,0,0,1-2.305,2.718c-1.7,1.29-3.282,2.766-5.111,3.926-4.1,2.6-8.918,4.25-14.131,5.739-2.551.728-5.314,0.686-8.017,1.309l-2.606.1a18.283,18.283,0,0,1-3.307.1,25.31,25.31,0,0,1-5.512-.2l-2.1-.1c-2.146-.5-4.435-0.512-6.514-1.108-6.81-1.952-11.692-3.807-16.736-7.45A22.223,22.223,0,0,1,33.41,60.115a14.5,14.5,0,0,1-.5-7.047C35.769,41.311,45.53,36.06,56.66,32.629c2.605-.8,5.427-0.961,8.218-1.611Zm0.2,2.114c-0.737.43-2.831,0.077-3.808,0.3-2.352.541-4.769,0.566-7.015,1.208-9.184,2.625-16.887,6.145-21.546,13.29C35.806,50,33.94,54.384,35.113,58.6,37.93,68.736,46.832,73.327,56.559,76.525c2.62,0.861,5.493,1.052,8.318,1.712l2.906,0.2a24.347,24.347,0,0,0,4.71.2,30.9,30.9,0,0,0,6.314-.3l1.8-.1,4.71-.806a64.95,64.95,0,0,0,7.015-2.013,47.111,47.111,0,0,0,9.821-5.336,16.755,16.755,0,0,0,3.607-3.02,27.4,27.4,0,0,0,3.809-5.739c2.831-6.7-.3-13.287-3.909-16.914C97.419,36.125,86.262,32.779,69.788,32.73Zm54.117,0.1a5.35,5.35,0,0,1,3.507,3.222,3.382,3.382,0,0,1,.3,2.517c-0.472,1.089-2.067,1.755-3.007,2.416-0.845.595-2.005,1.968-3.507,1.51s-4.521-4-2.906-6.141a4.062,4.062,0,0,1,.9-0.6c1.055-.766,2.088-1.721,3.207-2.416C122.83,33.068,123.452,33.114,123.905,32.831Zm-103.423.2a5.812,5.812,0,0,1,1.7,1.108c1.391,0.934,2.752,1.9,4.109,2.819,0.59,0.4,1.741.712,1.9,1.51-0.775.583-.824,2.078-2.1,2.114a12.759,12.759,0,0,0-3.608-.805v0.1h0.2a14.807,14.807,0,0,0,3.007,2.114l-1.5,2.316a44.986,44.986,0,0,1-5.111-3.524c-0.82-.55-2.049-1.01-2.606-1.812,0.644-.53.907-2.012,1.8-2.215a18.618,18.618,0,0,0,4.009.7,11.484,11.484,0,0,1-3.207-2.316A6.636,6.636,0,0,0,20.482,33.032ZM124.907,35.65a26.272,26.272,0,0,1-3.408,2.517c-0.543.368-1.253,0.549-1.4,1.309a1.075,1.075,0,0,0,.7.3c0.848-1.023,4.575-2.643,4.81-3.826a0.888,0.888,0,0,1-.3-0.3h-0.4Zm5.111,4.732a3.464,3.464,0,0,1,.9,1.611c0.744,1.441,1.744,2.679,1.5,4.833-1,.759-1.939,1.73-3.608,1.812a8.588,8.588,0,0,1-1.1-.805c-0.393-.538-0.573-1.741-1.3-1.913A10.813,10.813,0,0,1,123.3,47.53c-0.282-1.135-1.2-1.816-1.4-3.02a6.864,6.864,0,0,0,1.9-1.007c1.141-.7,2.46-1.211,3.608-1.812A11.013,11.013,0,0,0,130.018,40.382ZM16.072,42.093A6.606,6.606,0,0,1,19.279,43.3c1.738,0.912,4.544,1.53,3.207,4.833a9.538,9.538,0,0,1-.6,1.309c-1.873,3.033-4.025,1.608-6.514.3-0.841-.441-1.991-0.653-2.3-1.611a2.748,2.748,0,0,1-.1-2.215,6.29,6.29,0,0,1,1.9-3.322,6.627,6.627,0,0,0,.7-0.4A0.837,0.837,0,0,0,16.072,42.093Zm113.946,2.013a8.084,8.084,0,0,1-1.9,1.007,0.981,0.981,0,0,0,.8.7c0.447-.336,1.151-0.373,1.4-0.906a1.06,1.06,0,0,0-.1-0.806h-0.2ZM14.97,45.114l-0.2.6a33.165,33.165,0,0,0,4.109,2.014c0.412,0.181,1.078.765,1.5,0.6,0.349-.138.308-0.23,0.3-0.7C18.858,47.078,17.041,45.255,14.97,45.114Zm115.248,8.558a5.027,5.027,0,0,0-1.9.6,17.176,17.176,0,0,1,.7,2.316c-0.721.089-1.053,0.43-1.8,0.5q-0.9-2.668-1.8-5.336c2.156-.841,4.466-1.613,6.614-2.416a7.019,7.019,0,0,1,2.105-.6,26.007,26.007,0,0,1,1.8,5.135l-1.8.6a9.267,9.267,0,0,0-.7-2.014,1.864,1.864,0,0,0-1.5.805,5.152,5.152,0,0,1,.6,1.712c-0.67.079-1.064,0.4-1.7,0.5l-0.1-.3A3.549,3.549,0,0,1,130.218,53.671ZM19.179,56.088c-0.833,0-3.722.148-4.209,0.5A13.819,13.819,0,0,1,18.678,57.7a9.42,9.42,0,0,1-.8,2.517,0.51,0.51,0,0,1-.3.1,7.5,7.5,0,0,0-2-.6c-1.369-.458-2.931-0.956-4.309-1.41-0.686-.226-1.976-0.232-2.3-0.806a8.21,8.21,0,0,0,.8-2.517h0.6c0.931-.562,2.743.015,3.608-0.6a14.367,14.367,0,0,1-3.708-1.107,9.539,9.539,0,0,1,.8-2.517,0.509,0.509,0,0,1,.3-0.1c0.694,0.515,1.81.508,2.706,0.805,1.893,0.629,3.893,1.347,5.913,1.812v0.2A7.156,7.156,0,0,0,19.179,56.088Zm25.154-1.812a4.64,4.64,0,0,1-1.3.2,4.465,4.465,0,0,0-.7-0.906c-1.54-1.262-2.842,1.358-2.405,3.02a3.255,3.255,0,0,0,1,1.611,6.672,6.672,0,0,0,1.2,0,5.063,5.063,0,0,0,.9-1.51,5.375,5.375,0,0,0,1.3.4c-0.072,3.322-4.61,3.032-5.612.6-0.961-2.33.2-4.837,1.8-5.437a3.2,3.2,0,0,1,2.3,0A2.235,2.235,0,0,1,44.333,54.275ZM47.74,52.06c2.257-.058,3.39.479,4.009,2.014,0.944,2.343-.353,4.935-2,5.437-3.01.914-5.23-2.162-4.209-5.235C46,52.883,46.737,52.83,47.74,52.06Zm7.516,0c2.1-.057,3.324.4,3.908,1.812,0.964,2.333-.143,5.042-1.9,5.638-3.131,1.06-5.266-2.465-4.209-5.336C53.545,52.834,54.253,52.81,55.257,52.06Zm5.412,0.1c1.084-.022,3.312-0.3,4.009.2a1.5,1.5,0,0,1,.9.906,2.373,2.373,0,0,1-.8,3.121c-0.483.448-1.785,0.32-2.706,0.3v2.819h-1.4V52.161Zm6.414,0h5.011V53.47H68.485v1.51h3.407v1.309H68.485V58.2h3.808V59.41c-1.333.446-3.662,0.109-5.211,0.1V52.161Zm6.414,0a20.827,20.827,0,0,1,4.81.3c0.54,0.8,1.174,2.007.4,3.121-0.273.394-.95,0.389-1.2,0.806a6.68,6.68,0,0,1,2.1,3.121h-1.6a15.924,15.924,0,0,0-2.1-3.02,3.086,3.086,0,0,0-.9,0c-0.348.545-.114,2.246-0.1,3.02H73.6a9.111,9.111,0,0,1-.1-2.316V52.161ZM81.814,57.8l-0.5,1.711h-1.5v-0.2a9.466,9.466,0,0,0,.7-2.014c0.428-1.046.906-2.255,1.3-3.322a6.242,6.242,0,0,1,.6-1.712,3.614,3.614,0,0,1,1.5-.1l2.706,7.349h-1.5C84.425,57.612,84.413,57.707,81.814,57.8Zm4.51-5.638h5.311V53.47h-1.9v5.94a4.922,4.922,0,0,1-1.4.1c-0.447-1.351-.108-4.4-0.1-6.041h-1.9V52.161Zm6.314,0h1.4v7.349h-1.4V52.161Zm2.2,0h1.5a28.984,28.984,0,0,0,1.7,5.235c0.193-1.854,1.218-3.4,1.5-5.235h1.5a8.727,8.727,0,0,1-.7,2.114c-0.431,1.183-.7,2.334-1.1,3.423-0.16.431-.235,1.614-0.6,1.812h-1.4c-0.587-1.378-.9-2.814-1.4-4.329A18.491,18.491,0,0,1,94.842,52.161Zm7.115,0h5.011V53.47H103.36v1.51h3.307v1.309H103.36V58.2h3.708v1.309h-5.111V52.161ZM48.141,53.369a0.51,0.51,0,0,1-.3.1,4.367,4.367,0,0,0-.8.906c-0.506,1.185-.177,3.285.8,3.624a1.6,1.6,0,0,0,1.2.3,1.918,1.918,0,0,0,1-.806c0.982-.98.5-3.8-0.8-4.027A2.419,2.419,0,0,0,48.141,53.369Zm7.516,0a2.589,2.589,0,0,0-1.3,1.611C53.9,56.753,55.4,59.195,56.86,58.1c1.409-.464,1.147-2.66.8-4.027A2.545,2.545,0,0,0,55.658,53.369Zm6.414,0.1v2.014a7.691,7.691,0,0,0,1.9-.2,1.819,1.819,0,0,0,.3-0.5C65.1,53.553,63.081,53.408,62.071,53.47Zm12.828,0v1.711c0.831,0.028,2.131.162,2.505-.3C78.639,53.379,76.043,53.407,74.9,53.47Zm9.12,3.121-0.8-2.517a0.363,0.363,0,0,0-.1.2,7.246,7.246,0,0,0-.8,2.316h1.7Zm44.9,8.558c-0.034-1.1-.454-1.876-0.5-3.02,0.756-.026,3.584-0.564,3.809-1.007a1.1,1.1,0,0,0,.1-0.6h-0.1v-0.1a16.174,16.174,0,0,1-4.109.805q-0.3-1.611-.6-3.222c3.082-.316,5.958-1.613,9.12-1.812v0.2c0.422,0.619.295,1.712,0.5,2.517,0.791,3.083.639,5.4-3.107,4.933a3.558,3.558,0,0,0-.6-0.805c-0.338.564-.121,1.071-0.8,1.309A10.45,10.45,0,0,1,128.915,65.149Zm6.615-5.437c-0.487.3-1.515,0.1-1.8,0.6,0.325,0.436.181,0.616,1,.6l0.9-.3A0.777,0.777,0,0,0,135.53,59.712ZM16.573,69.075l-6.213-.906c-0.907-.214-2.208.061-2.906-0.4a0.682,0.682,0,0,1-.1-0.4c0.533-.886.232-2.436,0.5-3.524,0.44-1.78.5-2.105,1.6-3.222a26.758,26.758,0,0,1,7.115.906C17.9,63.512,16.786,66.511,16.573,69.075ZM9.458,64.746l5.913,0.805V64.746l-0.3-.1c-0.612-.429-4.6-0.852-5.412-0.7v0.1h-0.1Zm106.83-.906c5.18-.14,1.957,8.542,1.1,10.873-0.3.813-.326,1.489-0.6,2.316-1.337,4.013-2.258,8.5-3.908,12.283a27.509,27.509,0,0,1-3.408,5.437,10.855,10.855,0,0,1-2.5,2.014c-3.078,2.173-7.234,3.88-9.22,7.148-1.329,2.186-.349,5.3.8,6.947,0.434,0.619,1.324,1.081,1.6,1.812a4.811,4.811,0,0,0-1.1,1.208,0.278,0.278,0,0,1-.1-0.1c-2.639-1.748-4.877-7.187-2.606-10.873,2.359-3.828,7.095-5.494,10.623-8.155,3.918-2.955,5.211-8.807,6.915-13.994,0.43-1.308.571-2.518,1-3.826,0.778-2.362,1.634-4.761,2.3-7.249,0.289-1.071.6-3.57-.3-4.027a0.506,0.506,0,0,0-.3-0.1c-2.226,1.962-2.216,3.759-3.408,6.645a62.316,62.316,0,0,1-6.113,12.082c-1.11,1.583-2.248,3.216-4.109,4.027a13.233,13.233,0,0,1-6.514.5c-0.627-1.3.432-1.7,1-2.618,0.3-.49.4-1.007,0.7-1.51,0.9-1.495,2.124-3.221,2.2-5.437h-0.2l-0.9.3a15.441,15.441,0,0,0-1.4,1.007,11.467,11.467,0,0,0-2,2.215c-0.68.907-1.63,1.694-2.3,2.618-1.34,1.833-2.55,3.717-3.908,5.537-1.933,2.59-4.567,3.907-5.712,7.45a24.93,24.93,0,0,0-.6,7.047,18.824,18.824,0,0,1-.1,3.423q-0.1,1.711-.2,3.423a3.817,3.817,0,0,1-1.7.1v-0.1h-0.1c0.214-.69.02-1.508,0.2-2.315a21.212,21.212,0,0,0,.2-4.229c0-2.893-.081-5.662.7-8.054,1.013-3.094,3.275-4.64,5.011-6.947l0.9-.805c1.361-1.817,2.57-3.7,3.908-5.537,1.431-1.96,4.162-5.213,6.314-6.343,1.5-.79,3.741-0.752,3.708,1.51a27.083,27.083,0,0,0-.7,2.618c-0.676,1.559-2.143,3.462-2.605,5.034h1.5a4.451,4.451,0,0,1,1.1-.2,7.052,7.052,0,0,0,1.9-.906c2.135-1.547,4.857-6.509,6.013-9.162,0.815-1.868,1.548-3.78,2.3-5.638,0.895-2.2,1.315-4.4,2.606-6.141C114.794,64.459,115.577,64.343,116.288,63.84ZM64.877,112.367h-1.7l-0.4-5.437c-0.14-3.188.247-6.682-.8-9.161a15.548,15.548,0,0,0-3.508-4.631l-1.3-1.208c-1.4-1.858-2.858-3.755-4.209-5.638a24,24,0,0,0-4.81-5.437c-0.443-.331-1.52-1.547-2.2-1.208a1.1,1.1,0,0,0-.1.6l0.6,1.812c0.72,1.658,2.287,4.817,3.508,5.94a1.339,1.339,0,0,1-.6,1.309c-2.092-.082-4.576-0.037-6.113-0.7a9.945,9.945,0,0,1-3.908-3.725,54.1,54.1,0,0,1-5.412-10.068c-0.967-2.245-1.517-4.744-2.606-6.846-0.476-.92-0.778-1.952-2-2.114a5.437,5.437,0,0,0-.3,4.128c0.837,3.059,1.824,6.011,2.806,8.96,0.481,1.443.622,2.779,1.1,4.229,1.248,3.768,2.484,7.327,4.61,10.169,2.919,3.9,8.9,5.028,11.725,9.161a7.811,7.811,0,0,1,.9,7.753c-0.695,1.6-2.01,2.588-2.906,3.926h-0.1v-0.1a2.823,2.823,0,0,1-1.1-1.309c1.424-.741,3.635-4.368,3.006-6.846a9.05,9.05,0,0,0-1.8-3.323,7.977,7.977,0,0,0-1.7-1.309c-2.025-1.458-4.337-2.663-6.414-4.127-0.506-.357-0.916-0.941-1.4-1.309a5.258,5.258,0,0,1-1.1-.906,29.275,29.275,0,0,1-3.608-6.041c-1.6-3.743-2.292-7.974-3.608-11.981a79.1,79.1,0,0,1-2.3-7.853,5.823,5.823,0,0,1,.6-4.128,2.379,2.379,0,0,1,1.3-.7c2.126-.7,3.731,2.387,4.309,3.725,0.7,1.622,1.033,3.3,1.7,4.933a57.693,57.693,0,0,0,5.011,9.967c1.686,2.543,3.01,4.663,7.316,4.631V87.3a7.764,7.764,0,0,1-1.3-2.416c-0.944-1.827-1.969-3.354-2-6.141a4.358,4.358,0,0,1,1.7-.906c1.071-.213,2.041.628,2.606,1.007a22.122,22.122,0,0,1,5.311,5.537c1.653,2.245,3.431,4.511,5.111,6.746L61.27,93.54a18.058,18.058,0,0,1,2.405,3.826c0.655,1.567.577,3.314,0.8,5.336,0.106,0.954.1,2.907,0.1,4.329v1.913A17.034,17.034,0,0,1,64.877,112.367Zm64.239-46.614,9.32,1.108q0.15,2.416.3,4.832a9.6,9.6,0,0,0-2.305.6l-6.915,1.712a17.077,17.077,0,0,0-.2-3.322h0.1v-0.1l1.6-.2q-0.05-.554-0.1-1.107l-1.6-.1a6.642,6.642,0,0,1-.1-1.812A3.976,3.976,0,0,1,129.116,65.753Zm3.507,3.423c0.034,0.336.067,0.671,0.1,1.007h0.2c0.853-.545,2.455-0.134,3.307-0.7C134.982,69.456,133.966,69.189,132.623,69.176ZM16.573,70.384v3.322l-9.32-.2V70.283a3.281,3.281,0,0,1,1-.1,3.472,3.472,0,0,0,1.3,0A44.771,44.771,0,0,0,16.573,70.384ZM138.336,80.955l-1.9-.1q0.05-1.007.1-2.014l-7.316-.4a25.2,25.2,0,0,1,.2-3.322l7.316,0.4v-0.2a7.332,7.332,0,0,0,.2-1.712h0.1a7.628,7.628,0,0,0,1.8.2v0.1a6.394,6.394,0,0,0-.1,1.51A29.834,29.834,0,0,0,138.336,80.955ZM16.874,78.942l0.3,3.322-9.22.906-0.3-3.322a12.017,12.017,0,0,0,3.307-.4,11.5,11.5,0,0,1-3.407-1.007c-0.409-.652-0.249-2.221-0.4-3.02h0.4a28.5,28.5,0,0,0,4.009,1.309c1.766-.434,3.117-1.843,4.81-2.416v0.1a15.136,15.136,0,0,1,.4,3.322,12.355,12.355,0,0,0-3.507,1.611h0.1A14.552,14.552,0,0,1,16.874,78.942Zm111.941,2.215,9.22,1.611v0.2c-0.467.761-.1,2.188-0.6,2.92a0.864,0.864,0,0,1-.5.1c-0.744-.467-1.963-0.27-2.907-0.5a31.677,31.677,0,0,0-5.712-1.007ZM10.159,93.037c-0.07-1.2-.625-2.012-0.7-3.222,2.343-.241,5.138-1.348,7.416-1.913a0.345,0.345,0,0,1,.1-0.2,0.346,0.346,0,0,0-.1-0.2c-0.143-.363-0.308-0.321-0.8-0.3a8.3,8.3,0,0,1-2,.5A30.722,30.722,0,0,1,9.157,89.01a26.214,26.214,0,0,0-.8-3.222c1.774-.375,3.526-0.773,5.311-1.309a4.92,4.92,0,0,1,2.606-.5,3.3,3.3,0,0,1,1.6,1.309c0.757,1.221,1.279,4.268.2,5.537-0.488.574-1.594,0.545-2.405,0.805A24.222,24.222,0,0,1,10.159,93.037ZM127.713,86.9l9.52,0.805v0.2c-0.576.8-.4,2.248-1,3.02a1.319,1.319,0,0,1-.7.1,30.889,30.889,0,0,0-5.011-.805v0.1h0.2c1.33,1.006,3.954,1.188,5.111,2.316l-1,3.121a0.51,0.51,0,0,1-.3.1,9.577,9.577,0,0,0-2-1.007c-1.309-.684-2.7-1.428-4.008-2.114-0.689-.361-2.028-0.556-2.1-1.51A20.807,20.807,0,0,0,127.713,86.9ZM18.377,92.332l1,0.1c0.221,0.3.6,0.484,0.8,0.805a18.979,18.979,0,0,1,1.1,2.618,19.241,19.241,0,0,1,1.3,3.02,7.559,7.559,0,0,0-2.1.906c-1.495.673-2.991,1.275-4.41,1.913a17.342,17.342,0,0,1-2,.705,21.68,21.68,0,0,1-2.1-5.034,3.5,3.5,0,0,1,.3-1.913c0.454-.314,1.6-1.491,2.505-0.906a2.431,2.431,0,0,1,.9.805v-0.2a2.012,2.012,0,0,1,.1-1.51,11.658,11.658,0,0,1,1.4-.906A6.154,6.154,0,0,0,18.377,92.332Zm107.131,1.409a4.041,4.041,0,0,1,1.4.6c1.613,0.714,3.173,1.435,4.71,2.114,0.683,0.3,2.233.531,2.405,1.309a22.688,22.688,0,0,0-1.7,3.624c-0.235.459-.145,0.953-0.7,1.107-0.406-.362-1.247-0.4-1.5-0.906a3.741,3.741,0,0,0,.8-1.912c-0.569-.137-0.956-0.45-1.5-0.6-0.166.669-.581,1.1-0.7,1.813a2.4,2.4,0,0,1-1.7-.906q0.4-.856.8-1.712c-0.754-.106-1.131-0.573-1.9-0.7a7.123,7.123,0,0,1-.9,2.114,3.472,3.472,0,0,1-1.7-.906,9.811,9.811,0,0,0,.9-2.114A12.893,12.893,0,0,0,125.508,93.741ZM18.878,95.654c-0.574.48-1.553,0.272-1.6,1.309a1.976,1.976,0,0,1,.2.4,5.028,5.028,0,0,0,2.3-1.107A1.251,1.251,0,0,0,18.878,95.654ZM15.17,97.265c-0.529.441-1.09,0.188-1.1,1.208a1.164,1.164,0,0,1,.2.3l1.8-.805v-0.1h-0.1a1.854,1.854,0,0,0-.3-0.6h-0.5Zm99.414,16.914a3.619,3.619,0,0,1,1.2,1.108l3.808,3.725v0.1h-0.1a3.9,3.9,0,0,1-1.5,1.41,10.207,10.207,0,0,0-2.706-1.208v0.1a6.063,6.063,0,0,1,2,2.115,5.033,5.033,0,0,0-1.3,1.309h-0.1v-0.1c-1.14-.749-1.834-2.1-2.906-2.92a5.7,5.7,0,0,1-2-2.013c0.557-.38.855-1.156,1.6-1.309a8.149,8.149,0,0,0,1.9.906,2.51,2.51,0,0,1,.9.3,1.3,1.3,0,0,0-.5-0.5,11.4,11.4,0,0,1-1.6-1.611ZM32.708,116.5a18.528,18.528,0,0,1,2.906,2.617,2.352,2.352,0,0,1,.3,1.41c-0.589.613-1.126,1.3-1.7,1.913a2.7,2.7,0,0,1-2.405-1.208h-0.1v0.1a7.7,7.7,0,0,0-1.8,1.913H29.8v-0.1a4.064,4.064,0,0,1-1.6-1.611,7.314,7.314,0,0,0,1.4-1.611c0.616-.82,1.47-1.472,2.1-2.316A4.28,4.28,0,0,0,32.708,116.5Zm31.869,2.215V117.7c0.962-.262,1.017-1.072,2.2-1.108,0.48,0.931.212,3.865,0.2,5.236a1.528,1.528,0,0,1-1.1.3c-0.478-.787-0.315-2.569-0.3-3.826h-0.2A1.037,1.037,0,0,1,64.577,118.71Zm5.211-2.115c2.244-.087,3.5.481,3.508,2.618a3.437,3.437,0,0,1-.3,1.712c-0.7,1.182-4.592,2.158-4.61-.2a5.616,5.616,0,0,1,.7-0.2,2.434,2.434,0,0,0,1.6.906,1.37,1.37,0,0,0,.9-0.7,2.719,2.719,0,0,0,.3-1.006h-0.1c-0.684.929-3.078,0.551-3.407-.4a1.672,1.672,0,0,1-.3-1.309,4.734,4.734,0,0,0,.3-0.6,6.946,6.946,0,0,1,1-.7A0.642,0.642,0,0,0,69.788,116.6Zm11.425,0h0.7c0.48,0.931.212,3.865,0.2,5.236a1.528,1.528,0,0,1-1.1.3c-0.478-.787-0.315-2.569-0.3-3.826h-0.2a2.911,2.911,0,0,1-1.1.6V117.9A4.018,4.018,0,0,0,81.213,116.6Zm-7.416.1a27.242,27.242,0,0,1,4.81.1V117a0.514,0.514,0,0,1,.1.3,9.011,9.011,0,0,0-2.2,2.819c-0.275.665-.089,1.595-0.7,1.913a1.585,1.585,0,0,1-.8.1,1.543,1.543,0,0,1-.3-1.108C75.574,119.88,75.788,118.4,77,117.6v-0.1H73.9a0.361,0.361,0,0,0-.2-0.1A0.755,0.755,0,0,1,73.8,116.7Zm-3.407.6a0.673,0.673,0,0,1-.4.1l-0.5.6c-0.071,1.624.96,1.522,2,1.208a2.049,2.049,0,0,0,.3-0.906,1.421,1.421,0,0,0-.7-0.805A1.071,1.071,0,0,0,70.389,117.3ZM33.71,119.012a4.742,4.742,0,0,1-1.1,1.208,0.294,0.294,0,0,0,.1.1,3.777,3.777,0,0,0,.3.3,0.348,0.348,0,0,0,.2-0.1,1.577,1.577,0,0,0,.9-1.108A3.322,3.322,0,0,0,33.71,119.012Zm75.763,0.3,1.3,0.1a4.333,4.333,0,0,1,1.3,1.511c0.735,0.986,1.819,1.457,1.8,3.221-1.016,1.3-1.444,2.541-3.808,2.517-1.308-1.246-4.411-3.609-2.806-5.839C107.807,120.076,108.749,119.883,109.473,119.314Zm-72.355,1.107a8.972,8.972,0,0,1,2,1.41,0.283,0.283,0,0,1-.1.1,7.032,7.032,0,0,0-1.3,2.014c0.232,0.075.419,0.34,0.5,0.2a9.763,9.763,0,0,0,1.4-1.912,4.011,4.011,0,0,1,1.9,1.61,4.277,4.277,0,0,0-.9,1.209c-0.51.713-1.2,1.4-1.7,2.114a13.168,13.168,0,0,1-1.5,2.114,14.391,14.391,0,0,1-1.9-1.51,6.387,6.387,0,0,0,1.7-2.316,1.8,1.8,0,0,1-.4-0.3h-0.2a12.967,12.967,0,0,1-1.6,2.316h-0.1v-0.1a3.82,3.82,0,0,1-1.8-1.51,7.369,7.369,0,0,0,1.4-1.913C35.225,122.927,36.705,121.6,37.118,120.421Zm71.755,0.6a0.653,0.653,0,0,0-.2.5c0.759,0.75,2.087,3.218,3.106,3.423a1.515,1.515,0,0,0,.2-0.4C111.285,123.807,109.818,121.216,108.872,121.025Zm-3.808,1.611c0.633,0.269.848,1.146,1.2,1.712,0.764,1.219,2.3,2.81,2.7,4.228a4.219,4.219,0,0,0-1.6,1.007,0.334,0.334,0,0,1-.2-0.1,12.741,12.741,0,0,1-2.506-1.711v0.1a7.629,7.629,0,0,1,1.5,2.516,15.437,15.437,0,0,1-1.7.907,31.419,31.419,0,0,0-2.3-3.524,11.157,11.157,0,0,0-1.4-2.215v-0.1h0.1a3.891,3.891,0,0,1,1.7-1.007l2.5,1.712a25.024,25.024,0,0,1-1.5-2.517A4.741,4.741,0,0,0,105.064,122.636Zm-62.635,1.51,2,1.209a0.348,0.348,0,0,1-.1.2,7.289,7.289,0,0,1-1,1.611c-0.876,1.411-1.668,2.82-2.505,4.228h-0.1v-0.1a4.318,4.318,0,0,1-1.9-1.309,7.912,7.912,0,0,0,1.2-2.014C40.8,126.73,41.748,125.484,42.429,124.146Zm3.006,1.913a7.362,7.362,0,0,1,2.2,1.007c-0.446,1.815-2,3.231-2.505,5.034a4.182,4.182,0,0,1,1.2.6,0.341,0.341,0,0,1-.1.2,5.191,5.191,0,0,1-.5,1.108c-0.611-.267-3.177-1.448-3.407-1.913a13.015,13.015,0,0,0,1.3-2.618A18.218,18.218,0,0,0,45.435,126.059Zm53.415,0.5a2.4,2.4,0,0,1,1.1.1c0.827,0.306,2.558,3.986,2.706,5.135-1.026,1.223-1.839,1.451-3.307,2.215a1.972,1.972,0,0,1-1.2.5,7.158,7.158,0,0,1-.8-1.611c-0.508-.982-1.094-2.038-1.6-3.02a4.678,4.678,0,0,1-.6-1.51C96.136,127.471,97.753,127.381,98.851,126.563Zm-49.406,1.51a7.333,7.333,0,0,1,2.3.906l-1.5,3.725a2.937,2.937,0,0,0-.5,1.41,3.249,3.249,0,0,1,1.2.7c-0.346.406-.218,1.01-0.9,1.108-0.655-.559-2.913-0.892-3.207-1.611a6.806,6.806,0,0,0,.8-1.913A20.292,20.292,0,0,0,49.444,128.073Zm48.5,0.2c-0.074.088-.126,0.114-0.2,0.2a22.436,22.436,0,0,1,2,3.926h0.2a1.168,1.168,0,0,0,.2-0.7l-1.7-3.423h-0.5Zm-6.113,1.309c0.682-.1,1.71-0.9,2.2-0.705a6.7,6.7,0,0,1,.7,1.813,20.751,20.751,0,0,1,1.8,4.631l-2.2.906C93.8,133.923,92.21,131.959,91.836,129.583Zm-38.082.2a11.375,11.375,0,0,1,2.3.705v0.2a6.363,6.363,0,0,0-.5,1.51c-0.391,1.055-.812,2.267-1.2,3.322-0.221.6-.134,1.453-0.8,1.611-0.517-.375-1.7-0.323-2-0.906a8.72,8.72,0,0,0,.7-2.114C52.758,132.737,53.363,131.227,53.753,129.784Zm36.278,7.853a13.142,13.142,0,0,0-2.3.6v-0.2a8.635,8.635,0,0,1-.6-2.114,21.374,21.374,0,0,1-1.3-4.43,0.286,0.286,0,0,0,.1-0.1,7.333,7.333,0,0,0,2.2-.6,5.76,5.76,0,0,0,.7,2.316l0.2-2.618,2.2-.6v0.4a11.311,11.311,0,0,0-.4,3.121,16,16,0,0,1,2.505,3.222c-0.6.08-2.047,0.824-2.405,0.6a7.405,7.405,0,0,1-1.5-2.215h-0.1v0.2A5.673,5.673,0,0,1,90.032,137.637ZM56.96,130.892c1.1,0.009,4.245.867,4.51,1.611,0.666,0.727-.214,2.383-0.4,3.02a4.779,4.779,0,0,1-2.706,0l-0.6,2.718a9.714,9.714,0,0,1-2.405-.6c0.374-1.08.454-2.267,0.8-3.423A16.926,16.926,0,0,0,56.96,130.892Zm27.96,0.906,0.7,4.329a2.943,2.943,0,0,1,.1,1.611c-0.386,1.57-4.522,2.477-5.111.6-0.517-.673-0.663-3.256-0.9-4.228a1.838,1.838,0,0,1,0-1.41,5.4,5.4,0,0,1,2.2-.4l1,5.739h0.4a2.533,2.533,0,0,0,.1-0.8,27.658,27.658,0,0,1-.9-5.135C83.436,132.086,83.986,131.824,84.921,131.8Zm-22.949,4.833a6.933,6.933,0,0,1,2.3.3,2.823,2.823,0,0,0-.1,1.409,0.586,0.586,0,0,0,.4,0l0.3-.1,0.1-.906c-1.578-1.411-3.183-1.528-2.405-4.43a3.907,3.907,0,0,1,4.911.6v1.409a0.287,0.287,0,0,0-.1.1,8.071,8.071,0,0,0-2.2-.3v-0.1a1.016,1.016,0,0,0,0-.906,0.869,0.869,0,0,0-.5-0.1v0.2a1.184,1.184,0,0,0,0,.906c0.83,0.391,2.4,1.214,2.505,2.315,0.357,0.528-.082,1.557-0.2,2.014-1.11.749-4.246,0.964-4.81-.5C61.747,138.081,61.939,137.382,61.971,136.631ZM59.065,132.7a10.024,10.024,0,0,1-.4,1.611,0.661,0.661,0,0,0,.5,0c0.247-.13.068,0.043,0.2-0.2a2.547,2.547,0,0,0,.3-1.209A1.052,1.052,0,0,0,59.065,132.7Zm14.531,7.35a24.916,24.916,0,0,0-.3-4.732c-0.078-.408.012-1.633-0.1-2.215a6.151,6.151,0,0,1,1.7-.1c0.75-.5,2.66.048,3.207,0.2a2.434,2.434,0,0,1,.6,2.115,3.658,3.658,0,0,1-.7.7,2.741,2.741,0,0,1,.8.6,3.1,3.1,0,0,1,.1,2.416,0.6,0.6,0,0,1-.5.5C77.788,140.021,74.691,140.052,73.6,140.054Zm2.1-5.94,0.1,1.51h0.5l0.1-.3a1.525,1.525,0,0,0,0-1.007l-0.3-.1A0.667,0.667,0,0,0,75.7,134.114Zm0.3,4.53,0.6-.1v-1.51a0.362,0.362,0,0,1-.1-0.2l-0.6-.1v1.611A0.514,0.514,0,0,1,76,138.644Zm-6.314-.1a4.854,4.854,0,0,1-.3,1.712,2.714,2.714,0,0,1-1.4.5v-0.5a0.929,0.929,0,0,0,.4-0.3,1.459,1.459,0,0,1-.3-1.41,1.456,1.456,0,0,1,.4-0.1A2.716,2.716,0,0,0,69.688,138.543Z"/>
  <path id="Bukidnon_Community_Cooperative" data-name="Bukidnon Community Cooperative" class="cls-2" d="M183.116,81.977q8.155-.061,12.31-3.368t4.154-9.89a10.047,10.047,0,0,0-1.87-6.152,9.406,9.406,0,0,0-5.366-3.445,9.291,9.291,0,0,0,4.691-3.63,10.682,10.682,0,0,0,1.595-5.937,10.556,10.556,0,0,0-4.492-9.2q-4.491-3.168-13.107-3.168H165V81.977h18.119ZM183.3,62.935q5.548,0.031,5.549,5.629a4.691,4.691,0,0,1-1.563,3.768,6.693,6.693,0,0,1-4.476,1.338h-7.052V62.935H183.3Zm-7.542-17.442h5.273q3.618,0,5.243,1.25a4.837,4.837,0,0,1,1.625,4.088,4.606,4.606,0,0,1-1.5,3.733q-1.5,1.265-5.028,1.3h-5.611V45.493Zm53.99-8.306V66.442q0,4.153-1.717,6a6.576,6.576,0,0,1-5.058,1.846q-6.623,0-6.807-7.352V37.188H205.344V66.719q0.091,7.383,4.783,11.628t12.846,4.245a21.322,21.322,0,0,0,9.351-1.907,13.722,13.722,0,0,0,6.07-5.553A16.9,16.9,0,0,0,240.51,66.5V37.188H229.748ZM271.9,81.977h12.754L269.574,57l15.084-19.81H271.352l-9.627,14.058-3.74,5.691V37.188H247.224V81.977h10.761V70.164L262.4,65.3Zm26.949-44.789h-10.73V81.977h10.73V37.188ZM321.02,81.977a20.624,20.624,0,0,0,10.5-2.784,18.967,18.967,0,0,0,7.3-7.629,23.136,23.136,0,0,0,2.591-11.028V58.475a23.009,23.009,0,0,0-2.683-11,18.9,18.9,0,0,0-7.373-7.6,21.1,21.1,0,0,0-10.639-2.692H306.334V81.977H321.02Zm-0.307-36.453a8.508,8.508,0,0,1,7.236,3.291q2.482,3.292,2.483,9.782v1.938q0,6.522-2.483,9.828a8.362,8.362,0,0,1-7.113,3.307H317.1V45.524h3.618Zm63.494-8.336h-10.73v27.87l-15.789-27.87H346.926V81.977h10.762V54.107l15.82,27.87h10.7V37.188Zm44.609,21.256a25.853,25.853,0,0,0-2.5-11.459,18.22,18.22,0,0,0-6.913-7.706,20.361,20.361,0,0,0-20.342.031,17.9,17.9,0,0,0-6.9,7.767,26.612,26.612,0,0,0-2.406,11.612v2.523a25.716,25.716,0,0,0,2.59,11.228,17.907,17.907,0,0,0,6.883,7.521,19.388,19.388,0,0,0,10.118,2.63,19.117,19.117,0,0,0,10.163-2.722,17.941,17.941,0,0,0,6.883-7.767,26.5,26.5,0,0,0,2.422-11.6V58.444ZM417.871,60.69q-0.031,6.522-2.238,10a7.028,7.028,0,0,1-6.285,3.476,7.113,7.113,0,0,1-6.469-3.538Q400.7,67.088,400.7,60.505l0.031-3.291q0.459-12.182,8.553-12.182a7.124,7.124,0,0,1,6.362,3.461q2.223,3.461,2.223,10.136V60.69Zm53.776-23.5H460.916v27.87l-15.789-27.87H434.365V81.977h10.762V54.107l15.82,27.87h10.7V37.188ZM173.537,106.5a3.84,3.84,0,0,1-1.051,2.865,4.038,4.038,0,0,1-2.966,1.037,3.621,3.621,0,0,1-3.072-1.557,6.387,6.387,0,0,1-1.145-3.887v-3.056a6.348,6.348,0,0,1,1.145-3.864,3.621,3.621,0,0,1,3.072-1.557,4.028,4.028,0,0,1,2.966,1.043,3.814,3.814,0,0,1,1.051,2.836h2.208l0.023-.07a5.1,5.1,0,0,0-1.658-4.084,6.589,6.589,0,0,0-4.59-1.541,5.978,5.978,0,0,0-4.7,2.057A7.579,7.579,0,0,0,163,101.934v3.035a7.556,7.556,0,0,0,1.817,5.2,5.987,5.987,0,0,0,4.7,2.051,6.4,6.4,0,0,0,4.566-1.623,5.15,5.15,0,0,0,1.682-4.026l-0.023-.07h-2.208Zm18.448-4.57a7.314,7.314,0,0,0-1.933-5.2,6.554,6.554,0,0,0-5.016-2.068,6.2,6.2,0,0,0-4.841,2.074,7.48,7.48,0,0,0-1.863,5.192v3.035a7.452,7.452,0,0,0,1.863,5.191,6.218,6.218,0,0,0,4.841,2.063,6.563,6.563,0,0,0,5.016-2.063,7.292,7.292,0,0,0,1.933-5.191v-3.035Zm-2.3,3.035a5.816,5.816,0,0,1-1.255,3.873,4.2,4.2,0,0,1-3.393,1.494,3.89,3.89,0,0,1-3.206-1.5,6,6,0,0,1-1.2-3.867V101.91a5.966,5.966,0,0,1,1.2-3.843,3.89,3.89,0,0,1,3.206-1.5,4.2,4.2,0,0,1,3.387,1.5,5.768,5.768,0,0,1,1.261,3.843v3.059Zm5.974-10.055v17.063h2.3v-6.75l-0.222-6.9,0.058-.012,5.49,13.664h1.53l5.513-13.7,0.058,0.012-0.234,6.938v6.75h2.3V94.914H209.51l-5.419,13.863h-0.07L198.6,94.914h-2.943Zm21.251,0v17.063h2.3v-6.75l-0.222-6.9,0.058-.012,5.49,13.664h1.53l5.512-13.7,0.059,0.012-0.234,6.938v6.75h2.3V94.914h-2.943l-5.42,13.863h-0.07l-5.419-13.863h-2.943Zm31.377,0v11.558a3.661,3.661,0,0,1-1.162,2.933,4.514,4.514,0,0,1-3.055,1,4.128,4.128,0,0,1-2.9-1,3.769,3.769,0,0,1-1.1-2.933V94.914h-2.3v11.567a5.277,5.277,0,0,0,1.746,4.259,6.784,6.784,0,0,0,4.549,1.483,7.2,7.2,0,0,0,4.713-1.477,5.193,5.193,0,0,0,1.8-4.265V94.914h-2.3Zm19.16,0h-2.3v13.149l-0.07.023-8.188-13.172h-2.3v17.063h2.3V98.8l0.071-.023,8.187,13.2h2.3V94.914Zm6.873,0h-2.313v17.063h2.313V94.914Zm15.75,0H276.847v1.816H282.3v15.246h2.3V96.731h5.466V94.914Zm3.684,0h-2.628L297,105.824v6.153h2.289v-6l5.969-11.063H302.63l-4.438,8.672Zm30.075,11.59a3.844,3.844,0,0,1-1.051,2.865,4.042,4.042,0,0,1-2.967,1.037,3.621,3.621,0,0,1-3.072-1.557,6.386,6.386,0,0,1-1.144-3.887v-3.056a6.347,6.347,0,0,1,1.144-3.864,3.621,3.621,0,0,1,3.072-1.557,4.032,4.032,0,0,1,2.967,1.043,3.818,3.818,0,0,1,1.051,2.836h2.207l0.023-.07a5.1,5.1,0,0,0-1.658-4.084,6.589,6.589,0,0,0-4.59-1.541,5.981,5.981,0,0,0-4.7,2.057,7.579,7.579,0,0,0-1.816,5.209v3.035a7.555,7.555,0,0,0,1.816,5.2,5.99,5.99,0,0,0,4.7,2.051,6.4,6.4,0,0,0,4.567-1.623,5.153,5.153,0,0,0,1.681-4.026l-0.023-.07h-2.207Zm18.447-4.57a7.314,7.314,0,0,0-1.933-5.2,6.551,6.551,0,0,0-5.016-2.068,6.2,6.2,0,0,0-4.841,2.074,7.48,7.48,0,0,0-1.863,5.192v3.035a7.452,7.452,0,0,0,1.863,5.191,6.219,6.219,0,0,0,4.841,2.063,6.56,6.56,0,0,0,5.016-2.063,7.292,7.292,0,0,0,1.933-5.191v-3.035Zm-2.3,3.035a5.816,5.816,0,0,1-1.255,3.873,4.2,4.2,0,0,1-3.393,1.494,3.891,3.891,0,0,1-3.206-1.5,6.009,6.009,0,0,1-1.2-3.867V101.91a5.972,5.972,0,0,1,1.2-3.843,3.891,3.891,0,0,1,3.206-1.5,4.2,4.2,0,0,1,3.387,1.5,5.768,5.768,0,0,1,1.261,3.843v3.059Zm18.845-3.035a7.314,7.314,0,0,0-1.933-5.2,6.554,6.554,0,0,0-5.016-2.068,6.2,6.2,0,0,0-4.841,2.074,7.48,7.48,0,0,0-1.863,5.192v3.035a7.452,7.452,0,0,0,1.863,5.191,6.219,6.219,0,0,0,4.841,2.063,6.563,6.563,0,0,0,5.016-2.063,7.292,7.292,0,0,0,1.933-5.191v-3.035Zm-2.3,3.035a5.816,5.816,0,0,1-1.255,3.873,4.2,4.2,0,0,1-3.393,1.494,3.891,3.891,0,0,1-3.206-1.5,6.009,6.009,0,0,1-1.2-3.867V101.91a5.972,5.972,0,0,1,1.2-3.843,3.891,3.891,0,0,1,3.206-1.5,4.2,4.2,0,0,1,3.387,1.5,5.768,5.768,0,0,1,1.261,3.843v3.059ZM369,105.133a6.008,6.008,0,0,0,4.228-1.389,5.327,5.327,0,0,0,0-7.424A5.961,5.961,0,0,0,369,94.914h-6.506v17.063h2.3v-6.844H369Zm-4.2-8.4H369a3.3,3.3,0,0,1,2.575.948,3.389,3.389,0,0,1,.858,2.363A3.087,3.087,0,0,1,369,103.316h-4.2V96.731Zm23.353,5.519h-7.79V96.731h8.853V94.914H378.055v17.063h11.282V110.16h-8.981v-6.094h7.79V102.25Zm10.7,2.332a2.847,2.847,0,0,1,2.161.844,3.09,3.09,0,0,1,.806,2.226v1.559a9.679,9.679,0,0,0,.128,1.594,1.92,1.92,0,0,0,.584,1.172H404.9V111.7a2.143,2.143,0,0,1-.607-1.031,5.354,5.354,0,0,1-.175-1.43v-1.6a4.865,4.865,0,0,0-.614-2.537,3.484,3.484,0,0,0-2.014-1.483,4.623,4.623,0,0,0,1.991-1.546,3.874,3.874,0,0,0,.683-2.286,4.459,4.459,0,0,0-1.471-3.609,6.444,6.444,0,0,0-4.263-1.242h-6.155v17.051h2.3v-7.4h4.275Zm-4.275-7.84h3.855a3.675,3.675,0,0,1,2.6.79,2.917,2.917,0,0,1,.835,2.228,2.832,2.832,0,0,1-.858,2.263,4.27,4.27,0,0,1-2.809.743h-3.621V96.742Zm24.592,15.235h2.347l-6.47-17.063H413.07l-6.576,17.063h2.348l1.612-4.4h7.124Zm-5.151-14.1h0.07l2.8,7.77h-5.723Zm21.589-2.965H422.384v1.816h5.454v15.246h2.3V96.731h5.466V94.914Zm5.168,0h-2.312v17.063h2.312V94.914Zm5.227,0h-2.5l6.319,17.063h1.974l6.318-17.063h-2.487l-4.392,12.82-0.385,1.348h-0.07l-0.386-1.348Zm24.8,7.336h-7.79V96.731h8.853V94.914H460.71v17.063h11.282V110.16h-8.981v-6.094h7.79V102.25Z"/>
</svg>
